<svg width="57" height="56" viewBox="0 0 57 56" fill="none" xmlns="http://www.w3.org/2000/svg">
<circle cx="28.7891" cy="28" r="28" fill="url(#paint0_linear_46_76)"/>
<g clip-path="url(#clip0_46_76)">
<path fill-rule="evenodd" clip-rule="evenodd" d="M34.2374 29.3183C35.8357 30.4033 36.9557 31.8733 36.9557 33.8333V37.3333H40.4557C41.0974 37.3333 41.6224 36.8083 41.6224 36.1667V33.8333C41.6224 31.29 37.4574 29.785 34.2374 29.3183Z" fill="white"/>
<path d="M25.289 28C27.8664 28 29.9557 25.9107 29.9557 23.3333C29.9557 20.756 27.8664 18.6667 25.289 18.6667C22.7117 18.6667 20.6224 20.756 20.6224 23.3333C20.6224 25.9107 22.7117 28 25.289 28Z" fill="white"/>
<path fill-rule="evenodd" clip-rule="evenodd" d="M32.2891 28C34.8674 28 36.9557 25.9117 36.9557 23.3333C36.9557 20.755 34.8674 18.6667 32.2891 18.6667C31.7407 18.6667 31.2274 18.7833 30.7374 18.9467C31.7057 20.1483 32.2891 21.6767 32.2891 23.3333C32.2891 24.99 31.7057 26.5183 30.7374 27.72C31.2274 27.8833 31.7407 28 32.2891 28Z" fill="white"/>
<path fill-rule="evenodd" clip-rule="evenodd" d="M25.2891 29.1667C22.1741 29.1667 15.9557 30.73 15.9557 33.8333V36.1667C15.9557 36.8083 16.4807 37.3333 17.1224 37.3333H33.4557C34.0974 37.3333 34.6224 36.8083 34.6224 36.1667V33.8333C34.6224 30.73 28.4041 29.1667 25.2891 29.1667Z" fill="white"/>
</g>
<defs>
<linearGradient id="paint0_linear_46_76" x1="0.789062" y1="0" x2="56.7891" y2="56" gradientUnits="userSpaceOnUse">
<stop stop-color="#868CFF"/>
<stop offset="1" stop-color="#4318FF"/>
</linearGradient>
<clipPath id="clip0_46_76">
<rect width="28" height="28" fill="white" transform="translate(14.7891 14)"/>
</clipPath>
</defs>
</svg>
