<svg width="92" height="91" viewBox="0 0 92 91" fill="none" xmlns="http://www.w3.org/2000/svg">
<g clip-path="url(#clip0_46_228)">
<path d="M68.3187 16.9487C68.0153 16.9487 67.712 16.8729 67.4466 16.7212C60.1666 12.9675 53.8724 11.375 46.327 11.375C38.8195 11.375 31.6912 13.1571 25.2074 16.7212C24.2974 17.2142 23.1599 16.8729 22.6291 15.9629C22.1362 15.0529 22.4774 13.8775 23.3874 13.3846C30.4399 9.55499 38.1749 7.58333 46.327 7.58333C54.4032 7.58333 61.4557 9.36541 69.1907 13.3467C70.1387 13.8396 70.4799 14.9771 69.987 15.8871C69.6457 16.5696 69.0012 16.9487 68.3187 16.9487ZM14.0599 36.855C13.6807 36.855 13.3016 36.7412 12.9603 36.5137C12.0882 35.9071 11.8987 34.7317 12.5053 33.8596C16.2591 28.5512 21.0366 24.3804 26.7241 21.4608C38.6299 15.3183 53.8724 15.2804 65.8162 21.4229C71.5037 24.3425 76.2812 28.4754 80.0349 33.7458C80.6416 34.58 80.452 35.7933 79.5799 36.4C78.7078 37.0067 77.5324 36.8171 76.9257 35.945C73.5132 31.1675 69.1907 27.4137 64.072 24.7975C53.1899 19.2237 39.2745 19.2237 28.4303 24.8354C23.2737 27.4896 18.9512 31.2812 15.5387 36.0587C15.2353 36.5896 14.6666 36.855 14.0599 36.855ZM37.7578 82.6204C37.2649 82.6204 36.772 82.4308 36.4307 82.0517C33.132 78.7529 31.3499 76.6296 28.8095 72.0417C26.1932 67.3779 24.8282 61.6904 24.8282 55.5858C24.8282 44.3246 34.4591 35.1487 46.2891 35.1487C58.1191 35.1487 67.7499 44.3246 67.7499 55.5858C67.7499 56.6475 66.9157 57.4817 65.8541 57.4817C64.7924 57.4817 63.9582 56.6475 63.9582 55.5858C63.9582 46.41 56.0337 38.9404 46.2891 38.9404C36.5445 38.9404 28.6199 46.41 28.6199 55.5858C28.6199 61.0458 29.8332 66.0887 32.1462 70.1837C34.5728 74.5442 36.2412 76.4021 39.1607 79.3596C39.8812 80.1179 39.8812 81.2933 39.1607 82.0517C38.7437 82.4308 38.2507 82.6204 37.7578 82.6204ZM64.9441 75.6058C60.432 75.6058 56.4507 74.4683 53.1899 72.2312C47.5403 68.4017 44.1657 62.1833 44.1657 55.5858C44.1657 54.5242 44.9999 53.69 46.0616 53.69C47.1232 53.69 47.9574 54.5242 47.9574 55.5858C47.9574 60.9321 50.6874 65.975 55.3132 69.0842C58.0053 70.9042 61.1524 71.7762 64.9441 71.7762C65.8541 71.7762 67.3707 71.6625 68.8874 71.3971C69.9112 71.2075 70.897 71.89 71.0866 72.9517C71.2762 73.9754 70.5937 74.9612 69.532 75.1508C67.3707 75.5679 65.4749 75.6058 64.9441 75.6058ZM57.3228 83.4167C57.1712 83.4167 56.9816 83.3787 56.8299 83.3408C50.8012 81.6725 46.8578 79.4354 42.7249 75.3783C37.4166 70.1079 34.497 63.0933 34.497 55.5858C34.497 49.4433 39.7295 44.4383 46.1753 44.4383C52.6212 44.4383 57.8537 49.4433 57.8537 55.5858C57.8537 59.6429 61.3799 62.9417 65.7403 62.9417C70.1007 62.9417 73.627 59.6429 73.627 55.5858C73.627 41.2912 61.3041 29.6887 46.1374 29.6887C35.3691 29.6887 25.5107 35.6796 21.0745 44.9692C19.5957 48.0404 18.8374 51.6425 18.8374 55.5858C18.8374 58.5433 19.1028 63.2071 21.3778 69.2737C21.757 70.2596 21.2641 71.3592 20.2782 71.7004C19.2924 72.0796 18.1928 71.5487 17.8516 70.6008C15.9937 65.6337 15.0837 60.7046 15.0837 55.5858C15.0837 51.0358 15.9557 46.9029 17.662 43.3008C22.7049 32.7221 33.8903 25.8592 46.1374 25.8592C63.3895 25.8592 77.4187 39.1679 77.4187 55.5479C77.4187 61.6904 72.1862 66.6954 65.7403 66.6954C59.2945 66.6954 54.062 61.6904 54.062 55.5479C54.062 51.4908 50.5357 48.1921 46.1753 48.1921C41.8149 48.1921 38.2887 51.4908 38.2887 55.5479C38.2887 62.0317 40.7912 68.0983 45.3791 72.6483C48.9812 76.2125 52.4316 78.1842 57.7778 79.6629C58.8016 79.9283 59.3703 80.99 59.1049 81.9758C58.9153 82.8479 58.1191 83.4167 57.3228 83.4167Z" fill="#4318FF"/>
</g>
<defs>
<clipPath id="clip0_46_228">
<rect width="91" height="91" fill="white" transform="translate(0.789062)"/>
</clipPath>
</defs>
</svg>
