<svg width="31" height="30" viewBox="0 0 31 30" fill="none" xmlns="http://www.w3.org/2000/svg">
<rect x="0.789062" width="30" height="30" rx="7" fill="#F4F7FE"/>
<g clip-path="url(#clip0_46_103)">
<path d="M10.1891 12.2H10.3891C11.1591 12.2 11.7891 12.83 11.7891 13.6V20.6C11.7891 21.37 11.1591 22 10.3891 22H10.1891C9.41906 22 8.78906 21.37 8.78906 20.6V13.6C8.78906 12.83 9.41906 12.2 10.1891 12.2ZM15.7891 8C16.5591 8 17.1891 8.63 17.1891 9.4V20.6C17.1891 21.37 16.5591 22 15.7891 22C15.0191 22 14.3891 21.37 14.3891 20.6V9.4C14.3891 8.63 15.0191 8 15.7891 8ZM21.3891 16C22.1591 16 22.7891 16.63 22.7891 17.4V20.6C22.7891 21.37 22.1591 22 21.3891 22C20.6191 22 19.9891 21.37 19.9891 20.6V17.4C19.9891 16.63 20.6191 16 21.3891 16Z" fill="#4318FF"/>
</g>
<defs>
<clipPath id="clip0_46_103">
<rect width="24" height="24" fill="white" transform="translate(3.78906 3)"/>
</clipPath>
</defs>
</svg>
